<?xml version="1.0" encoding="utf-8"?>
<!-- Generator: Adobe Illustrator 22.1.0, SVG Export Plug-In . SVG Version: 6.00 Build 0)  -->
<svg version="1.1" id="Layer_1" xmlns="http://www.w3.org/2000/svg" xmlns:xlink="http://www.w3.org/1999/xlink" x="0px" y="0px"
	 viewBox="0 0 430 254.9" style="enable-background:new 0 0 430 254.9;" xml:space="preserve">
<style type="text/css">
	.st0{fill:#2A9E48;}
	.st1{font-family:'GothamBook';}
	.st2{font-size:72px;}
	.st3{letter-spacing:14;}
</style>
<g>
	<polygon class="st0" points="0,87.5 96,39.8 96,55.6 32,87.4 96,119.1 96,135.1 	"/>
	<path class="st0" d="M290.7,105.7c-10.4,32.7-41,56.3-77.2,56.3c-44.7,0-81-36.3-81-81c0-1.5,0-3.1,0.1-4.6
		c18.1-9.8,38.8-15.4,60.9-15.4C232.4,61,267.2,78.3,290.7,105.7z"/>
	<polygon class="st0" points="430,91.5 334,139.1 334,123.1 398,91.4 334,59.6 334,43.8 	"/>
	<path class="st0" d="M294.5,81c0,2.1-0.1,4.2-0.2,6.2C270.8,60.1,236.1,43,197.5,43c-22.5,0-43.6,5.8-62,16c9.6-34,40.9-59,78-59
		C258.2,0,294.5,36.3,294.5,81z"/>
	<text transform="matrix(1 0 0 1 22.5005 254.8818)" class="st0 st1 st2 st3">CODELE</text>
</g>
</svg>
