<svg xmlns="http://www.w3.org/2000/svg" xmlns:xlink="http://www.w3.org/1999/xlink" id="Layer_1" data-name="Layer 1" viewBox="0 0 188.18 120.91"><defs><style>@font-face{font-family:&apos;Montserrat&apos;;font-style:normal;font-weight:300;font-display:swap;src:local(&apos;Montserrat Light&apos;),local(&apos;Montserrat-Light&apos;),url(https://fonts.gstatic.com/s/montserrat/v14/JTURjIg1_i6t8kCHKm45_cJD3gnD_g.woff2) format(&apos;woff2&apos;);unicode-range:U+0000-00FF,U+0131,U+0152-0153,U+02BB-02BC,U+02C6,U+02DA,U+02DC,U+2000-206F,U+2074,U+20AC,U+2122,U+2191,U+2193,U+2212,U+2215,U+FEFF,U+FFFD}.cls-1{fill:url(#linear-gradient)}.cls-2{align-self:center;text-align:center;font-size:32px;fill:#3ca356;font-family:Montserrat,sans-serif;letter-spacing:.3em}</style><linearGradient id="linear-gradient" x1="55.96" x2="135.96" y1="41.06" y2="41.06" gradientUnits="userSpaceOnUse"><stop offset="0" stop-color="#82bb77"/><stop offset="1" stop-color="#1c903d"/></linearGradient></defs><title>Artboard 1</title><path d="M82.28,76.23v2.42A40,40,0,0,1,56,41.06c0-.77,0-1.53.07-2.29a62.86,62.86,0,0,1,27.1-7.52,6.61,6.61,0,0,0-.85,3.21V56.59c0,4.81-5.5,8.83-12.81,9.77l.43,0-.43,0C76.78,67.39,82.28,71.41,82.28,76.23Zm8.29-44.89a4,4,0,0,0-1.76,3.12V56.59c0,4.9-5.71,9-13.22,9.82,7.51.83,13.22,4.91,13.22,9.82v4.19a40,40,0,0,0,45.26-27.18A63.09,63.09,0,0,0,90.57,31.34ZM96,1.06a40,40,0,0,0-38.5,29.13,63.21,63.21,0,0,1,78.38,13.93q.12-1.51.12-3.06A40,40,0,0,0,96,1.06Z" class="cls-1"/><text class="cls-2" font-family="GothamBook" transform="translate(0.93 118.87)">CODELE</text></svg>